<?xml version="1.0" standalone="no"?>
<!DOCTYPE svg PUBLIC "-//W3C//DTD SVG 20010904//EN"
 "http://www.w3.org/TR/2001/REC-SVG-20010904/DTD/svg10.dtd">
<svg version="1.0" xmlns="http://www.w3.org/2000/svg"
 width="800.000000pt" height="418.000000pt" viewBox="0 0 800.000000 418.000000"
 preserveAspectRatio="xMidYMid meet">

<g transform="translate(0.000000,418.000000) scale(0.100000,-0.100000)"
fill="#000000" stroke="none">
<path d="M3685 4135 c-496 -115 -966 -476 -1344 -1035 -76 -113 -201 -314
-201 -325 0 -3 284 -4 631 -3 l632 3 56 93 c207 342 464 571 744 663 37 12 66
25 65 29 -2 5 -95 141 -208 304 -236 341 -197 313 -375 271z"/>
<path d="M4555 4078 c-4 -13 -85 -477 -85 -490 0 -5 21 -8 48 -8 72 0 227 -28
310 -56 294 -98 591 -329 867 -671 l66 -83 140 0 c89 0 139 4 139 10 0 16
-112 180 -226 330 -336 444 -735 775 -1124 933 -117 48 -129 51 -135 35z"/>
<path d="M1715 1808 c-115 -282 -209 -515 -207 -518 1 -3 23 -5 49 -5 l47 0
51 125 51 125 274 0 275 0 51 -125 52 -125 37 -3 c68 -6 69 -3 16 125 -27 65
-97 235 -155 378 -59 143 -132 322 -163 398 l-57 137 -56 0 -56 0 -209 -512z
m388 114 c64 -158 117 -291 117 -295 0 -4 -108 -7 -240 -7 -132 0 -240 3 -240
6 0 13 234 584 240 584 3 0 58 -130 123 -288z"/>
<path d="M3680 1800 l0 -520 50 0 50 0 0 183 c0 100 5 199 10 219 29 102 188
151 269 82 42 -35 51 -89 51 -298 l0 -186 51 0 50 0 -3 228 c-3 212 -4 230
-25 268 -41 77 -107 114 -203 114 -57 0 -137 -37 -173 -79 l-27 -33 0 271 0
271 -50 0 -50 0 0 -520z"/>
<path d="M4340 1800 l0 -521 98 3 97 3 5 166 5 165 36 43 36 43 168 -211 169
-211 118 0 c70 0 118 4 118 10 0 5 -96 125 -212 266 -117 140 -214 262 -216
270 -2 7 87 118 197 245 111 128 201 236 201 241 0 5 -55 7 -122 6 l-122 -3
-173 -210 c-96 -115 -180 -219 -188 -230 -12 -18 -14 9 -14 213 l-1 232 -100
0 -100 0 0 -520z"/>
<path d="M2812 1879 c-18 -5 -53 -29 -77 -53 l-45 -43 0 49 0 48 -55 0 -55 0
2 -297 3 -298 50 0 50 0 5 200 c3 131 9 207 17 221 34 60 122 101 192 89 34
-5 37 -3 59 36 13 22 21 44 17 47 -10 11 -129 12 -163 1z"/>
<path d="M3213 1871 c-135 -46 -214 -173 -200 -321 10 -112 72 -200 176 -249
46 -21 70 -25 136 -25 89 1 145 20 203 70 l33 29 -34 34 -35 33 -24 -22 c-92
-87 -246 -72 -315 31 -36 54 -44 157 -19 224 47 122 214 165 315 80 37 -32 41
-31 75 4 l29 30 -34 31 c-73 66 -201 88 -306 51z"/>
<path d="M5292 1583 l3 -298 233 -3 232 -2 0 75 0 75 -146 0 -145 0 3 43 3 42
138 3 137 3 0 69 0 70 -140 0 -140 0 0 40 0 40 145 0 145 0 0 70 0 70 -235 0
-235 0 2 -297z"/>
<path d="M5864 1864 c3 -8 54 -86 113 -172 l108 -157 5 -125 5 -125 83 -3 82
-3 0 119 0 120 103 153 c56 85 110 166 120 182 l17 27 -98 0 -98 0 -47 -79
c-84 -141 -73 -139 -146 -22 l-63 101 -95 0 c-82 0 -94 -2 -89 -16z"/>
<path d="M1689 541 c-70 -23 -99 -61 -99 -130 0 -60 37 -90 147 -123 49 -15
97 -36 107 -47 25 -28 18 -79 -15 -103 -47 -35 -155 -20 -203 27 -17 17 -18
17 -38 -3 -27 -26 -16 -41 50 -73 61 -30 178 -30 225 0 59 37 80 105 52 166
-20 41 -56 62 -162 94 -77 23 -103 41 -103 72 0 58 61 89 137 69 26 -6 57 -20
71 -31 14 -10 26 -18 26 -17 1 2 9 13 19 25 18 21 18 22 -27 48 -49 29 -140
41 -187 26z"/>
<path d="M2280 537 c-53 -17 -123 -93 -139 -150 -34 -120 14 -248 111 -298
118 -60 259 -14 320 105 30 58 29 166 -1 229 -50 104 -172 152 -291 114z m170
-62 c38 -20 79 -91 84 -146 10 -120 -65 -211 -175 -211 -117 0 -195 120 -160
248 30 112 147 163 251 109z"/>
<path d="M4912 537 c-106 -39 -163 -145 -147 -272 23 -190 260 -270 395 -135
97 97 90 281 -15 368 -61 50 -158 66 -233 39z m133 -48 c80 -22 135 -120 121
-211 -10 -62 -49 -122 -91 -143 -138 -65 -279 56 -247 213 14 67 44 110 96
133 48 22 67 23 121 8z"/>
<path d="M6185 540 c-82 -27 -118 -107 -80 -179 13 -25 93 -71 124 -71 6 0 35
-9 65 -20 40 -16 57 -28 66 -49 22 -55 -25 -101 -102 -101 -55 0 -94 13 -126
43 -23 22 -24 22 -38 3 -20 -29 -18 -38 19 -63 86 -58 248 -47 292 20 26 40
29 90 10 131 -20 42 -50 60 -153 92 -41 12 -82 30 -93 40 -24 22 -24 55 1 81
39 42 112 41 182 -3 36 -23 38 -23 48 -5 16 32 12 39 -32 62 -47 24 -138 33
-183 19z"/>
<path d="M2830 305 l0 -235 140 0 140 0 0 25 0 25 -110 0 -110 0 0 210 0 210
-30 0 -30 0 0 -235z"/>
<path d="M3302 368 c3 -163 5 -176 28 -217 34 -59 79 -82 167 -83 98 -1 145
27 178 105 11 28 15 76 15 202 l0 165 -30 0 -30 0 0 -161 c0 -181 -10 -218
-64 -246 -39 -20 -109 -20 -141 1 -54 35 -60 57 -63 238 l-4 168 -30 0 -30 0
4 -172z"/>
<path d="M3900 515 c0 -24 2 -25 75 -25 l75 0 0 -210 0 -210 30 0 30 0 0 210
0 210 75 0 c73 0 75 1 75 25 l0 25 -180 0 -180 0 0 -25z"/>
<path d="M4470 305 l0 -235 30 0 30 0 0 235 0 235 -30 0 -30 0 0 -235z"/>
<path d="M5460 305 l0 -235 30 0 30 0 2 186 3 186 135 -186 c118 -163 138
-186 163 -186 l27 0 0 235 0 235 -30 0 -30 0 -2 -179 -3 -180 -62 87 c-200
278 -195 272 -230 272 l-33 0 0 -235z"/>
</g>
</svg>
