<?xml version="1.0" standalone="no"?>
<!DOCTYPE svg PUBLIC "-//W3C//DTD SVG 20010904//EN"
 "http://www.w3.org/TR/2001/REC-SVG-20010904/DTD/svg10.dtd">
<svg version="1.0" xmlns="http://www.w3.org/2000/svg"
 width="684.000000pt" height="224.000000pt" viewBox="0 0 684.000000 224.000000"
 preserveAspectRatio="xMidYMid meet">

<g transform="translate(0.000000,224.000000) scale(0.100000,-0.100000)"
fill="#000000" stroke="none">
<path d="M2490 2144 c14 -2 484 -40 1045 -84 561 -44 1029 -81 1040 -83 21 -3
21 -4 10 -50 l-7 -27 188 0 189 0 -85 -85 -85 -85 55 -1 c99 -1 99 23 -11
-319 -53 -168 -97 -306 -95 -307 1 -1 179 175 396 392 l395 395 -283 0 c-155
0 -282 3 -282 7 0 4 55 63 122 130 l123 123 -1370 -1 c-754 -1 -1359 -4 -1345
-5z"/>
<path d="M2920 1883 c74 -8 1541 -123 1573 -123 32 0 34 2 54 65 l21 65 -841
-2 c-463 0 -826 -3 -807 -5z"/>
<path d="M4525 1738 c-16 -43 -123 -383 -121 -385 1 -1 87 83 190 186 l189
189 -79 6 c-43 4 -100 9 -126 12 -35 4 -49 2 -53 -8z"/>
<path d="M815 1269 c-70 -10 -214 -53 -265 -79 -114 -58 -216 -168 -261 -281
-45 -115 -162 -436 -175 -484 -46 -165 32 -272 233 -322 106 -26 406 -24 538
5 136 29 267 94 343 170 51 51 118 159 137 220 l6 22 -185 0 -185 0 -21 -58
c-48 -129 -119 -174 -288 -180 -129 -5 -186 12 -208 63 -17 41 -15 47 104 372
49 134 101 258 115 277 15 19 46 44 71 55 121 59 341 47 376 -20 12 -22 9 -87
-5 -121 -7 -17 6 -18 178 -18 l185 0 12 36 c17 52 16 154 -3 190 -40 76 -127
127 -256 150 -84 15 -350 17 -446 3z"/>
<path d="M2982 1243 c-17 -47 -400 -1086 -411 -1116 l-11 -27 171 2 171 3 214
580 c117 319 214 581 214 583 0 1 -76 2 -169 2 l-169 0 -10 -27z"/>
<path d="M3602 1243 c-18 -50 -400 -1087 -411 -1116 l-11 -27 171 2 172 3 213
580 c117 319 214 581 214 583 0 1 -76 2 -169 2 l-169 0 -10 -27z"/>
<path d="M1947 970 c-124 -26 -225 -76 -296 -148 -70 -70 -77 -83 -154 -286
-50 -134 -60 -172 -61 -227 -1 -55 3 -72 26 -106 56 -85 222 -129 453 -120
238 9 404 65 509 170 64 64 80 93 152 285 70 186 79 259 41 324 -31 54 -99 93
-194 113 -101 22 -364 19 -476 -5z m282 -163 c26 -7 52 -22 63 -38 l19 -26
-72 -199 c-50 -136 -81 -208 -100 -226 -39 -40 -125 -61 -226 -56 -91 5 -135
26 -141 67 -2 13 29 110 68 217 61 165 77 199 104 218 66 49 190 68 285 43z"/>
<path d="M5222 970 c-40 -11 -111 -35 -158 -53 -46 -19 -84 -31 -84 -27 0 4 7
26 15 49 l14 41 -163 0 c-122 0 -165 -3 -169 -12 -2 -7 -73 -200 -157 -428
-84 -228 -155 -421 -157 -428 -4 -9 33 -12 164 -12 l170 0 122 333 122 333 82
33 c57 23 104 35 153 39 64 4 74 2 94 -18 16 -16 20 -28 15 -48 -6 -24 -149
-419 -219 -605 l-25 -67 170 2 171 3 129 350 c103 280 129 360 129 401 0 65
-23 96 -87 118 -66 23 -236 21 -331 -4z"/>
<path d="M6110 975 c-246 -54 -397 -201 -344 -334 27 -68 102 -112 294 -171
191 -59 245 -101 202 -159 -10 -15 -32 -33 -48 -41 -32 -16 -165 -26 -219 -16
-45 9 -102 58 -110 96 -4 17 -10 30 -13 30 -21 0 -303 -48 -307 -52 -8 -8 35
-84 71 -126 91 -107 297 -146 556 -107 185 28 329 105 388 208 48 83 38 152
-30 205 -42 33 -100 58 -255 112 -82 29 -162 61 -177 72 -100 70 77 170 224
126 35 -10 75 -45 103 -91 9 -14 24 -13 157 16 137 29 147 33 142 52 -21 66
-97 132 -191 167 -76 28 -341 36 -443 13z"/>
<path d="M3966 603 c-77 -208 -149 -406 -162 -441 l-24 -62 171 2 170 3 154
418 c85 230 157 427 160 438 6 18 -1 19 -162 19 l-169 0 -138 -377z"/>
</g>
</svg>
