<?xml version="1.0" standalone="no"?>
<!DOCTYPE svg PUBLIC "-//W3C//DTD SVG 20010904//EN"
 "http://www.w3.org/TR/2001/REC-SVG-20010904/DTD/svg10.dtd">
<svg version="1.0" xmlns="http://www.w3.org/2000/svg"
 width="6285.000000pt" height="2575.000000pt" viewBox="0 0 6285.000000 2575.000000"
 preserveAspectRatio="xMidYMid meet">

<g transform="translate(0.000000,2575.000000) scale(0.100000,-0.100000)"
fill="#000000" stroke="none">
<path d="M58840 25680 l0 -70 -9240 0 -9240 0 0 60 0 60 -540 0 -540 0 0 -60
0 -60 -9280 0 -9279 0 -3 58 -3 57 -543 3 -542 2 0 -60 0 -60 -9270 0 -9269 0
-3 58 -3 57 -542 3 -543 2 0 -545 0 -545 55 0 55 0 0 -9275 0 -9275 -55 0 -55
0 0 -545 0 -545 543 2 542 3 3 73 3 72 9269 0 9270 0 0 -75 0 -75 543 2 542 3
3 73 3 72 9277 -2 9277 -3 3 -72 3 -73 539 0 540 0 0 75 0 75 9240 0 9240 0 0
-60 0 -60 540 0 540 0 0 540 0 540 -60 0 -60 0 0 9275 0 9275 60 0 60 0 0 545
0 545 -540 0 -540 0 0 -70z m-39210 -978 l0 -68 543 1 542 0 3 68 3 67 9274 0
9274 0 3 -67 3 -68 545 0 545 0 3 68 3 67 9229 0 9229 0 3 -52 3 -53 63 -3 62
-3 0 -9274 0 -9274 -62 -3 -63 -3 -3 -56 -3 -56 -132 -7 c-167 -8 -18237 -8
-18288 0 -38 6 -38 7 -41 58 l-3 51 -545 0 -545 0 -3 -51 -3 -51 -45 -7 c-59
-8 -18399 -8 -18458 0 l-45 7 -3 51 -3 51 -542 1 -543 0 0 -52 0 -51 -46 -7
c-25 -3 -4196 -6 -9269 -6 l-9224 0 -3 58 -3 57 -67 3 c-60 3 -67 5 -72 26 -3
13 -6 4182 -6 9264 l0 9241 73 3 72 3 3 68 3 67 9269 0 9270 0 0 -68z"/>
<path d="M5075 21975 c-89 -16 -150 -47 -175 -88 -66 -108 36 -236 230 -291
30 -8 276 -47 547 -86 271 -39 516 -79 545 -89 322 -111 545 -401 598 -780 33
-235 32 -10225 -1 -10467 -41 -305 -178 -543 -392 -682 -85 -55 -154 -83 -299
-122 -62 -17 -138 -45 -170 -62 -151 -81 -193 -223 -83 -285 102 -57 -226 -54
4648 -53 3997 0 4478 1 4524 15 72 22 145 82 177 147 24 50 86 395 208 1158
11 69 96 596 189 1171 180 1112 186 1167 153 1280 -30 103 -84 149 -177 149
-96 0 -212 -82 -265 -186 -11 -21 -52 -154 -91 -294 -90 -318 -231 -743 -306
-919 -106 -251 -255 -521 -379 -686 -379 -504 -927 -785 -1725 -885 -266 -33
-427 -39 -1356 -50 -495 -5 -1199 -15 -1565 -21 -366 -7 -730 -10 -810 -8
-139 4 -148 6 -210 36 -80 39 -161 118 -198 192 -24 51 -27 69 -33 216 -5 125
-24 3729 -24 4615 0 202 5 225 61 269 25 19 39 21 188 21 88 -1 375 -7 636
-15 608 -18 1018 -29 2333 -61 831 -21 1077 -24 1107 -15 56 17 100 58 127
120 l24 55 -6 495 c-4 289 -11 510 -17 529 -15 49 -63 98 -114 118 -42 16 -87
16 -777 0 -402 -9 -856 -21 -1007 -26 -151 -6 -419 -13 -595 -15 -176 -3 -439
-10 -585 -15 -146 -6 -375 -12 -510 -15 -135 -2 -362 -7 -505 -10 -252 -6
-261 -6 -293 15 -20 12 -41 38 -51 63 -18 40 -18 129 -6 2162 14 2360 7 2163
83 2281 82 125 229 228 367 254 44 8 470 10 1590 7 1647 -4 1638 -3 1965 -58
657 -109 1089 -388 1458 -939 92 -138 200 -327 269 -470 30 -63 81 -169 113
-235 63 -130 194 -437 267 -623 78 -200 125 -272 203 -312 111 -57 214 -17
255 99 21 61 20 112 -24 801 -22 338 -44 685 -49 770 -57 902 -113 1650 -127
1690 -9 25 -32 62 -53 83 -71 73 393 67 -4976 66 -3882 -1 -4855 -3 -4911 -14z"/>
<path d="M23015 20523 c-126 -6 -370 -34 -512 -58 -418 -71 -809 -200 -1202
-395 -642 -321 -1181 -777 -1634 -1384 -620 -832 -1001 -1858 -1153 -3111 -19
-156 -44 -669 -44 -905 0 -963 150 -1902 426 -2663 275 -758 653 -1365 1179
-1893 701 -705 1665 -1160 2735 -1293 424 -53 662 -59 1025 -25 669 61 1362
291 1731 574 81 63 137 84 224 83 47 -1 95 -9 130 -21 30 -11 330 -139 665
-285 336 -146 646 -275 690 -287 183 -51 283 -17 306 103 14 78 -5 131 -76
201 -69 70 -104 134 -138 254 l-22 77 0 1930 0 1930 23 90 c60 239 206 432
402 534 93 49 89 47 470 121 429 83 468 95 528 165 36 40 39 68 16 123 -22 54
-60 89 -121 112 -53 20 -78 20 -1533 20 -1042 0 -1494 -3 -1531 -11 -30 -7
-64 -23 -83 -39 -27 -25 -31 -35 -31 -78 0 -63 18 -89 111 -160 196 -151 265
-255 315 -478 23 -99 23 -104 26 -1162 4 -1032 3 -1066 -17 -1200 -46 -309
-138 -531 -323 -779 -190 -254 -458 -480 -783 -662 -60 -34 -132 -70 -160 -80
-27 -11 -93 -37 -146 -60 -350 -145 -703 -211 -1062 -197 -781 31 -1382 275
-1872 761 -600 595 -975 1518 -1119 2752 -54 466 -70 951 -55 1617 6 270 13
492 15 495 3 6 21 269 30 441 6 117 7 129 36 395 131 1214 431 2123 908 2750
103 135 332 364 464 462 328 244 715 390 1151 434 158 15 663 6 851 -16 698
-82 1191 -297 1581 -691 391 -394 673 -969 898 -1831 53 -203 79 -276 115
-317 41 -46 127 -62 173 -32 29 19 62 76 77 133 9 31 12 467 12 1563 0 1498 0
1520 -20 1564 -28 65 -68 113 -116 141 -37 22 -65 27 -286 45 -277 23 -754 71
-999 100 -904 108 -1827 166 -2275 143z"/>
<path d="M35495 20523 c-166 -20 -298 -61 -350 -107 -34 -31 -188 -428 -1917
-4951 -190 -496 -879 -2299 -916 -2395 -22 -58 -304 -798 -627 -1645 -322
-847 -604 -1577 -626 -1621 -61 -128 -179 -234 -343 -309 -66 -30 -296 -100
-531 -160 -211 -54 -325 -137 -325 -236 0 -44 51 -93 121 -114 49 -14 169 -16
1272 -15 728 0 1238 5 1268 10 78 15 119 39 136 78 30 72 3 118 -121 202 -153
103 -178 192 -117 428 32 123 727 2259 776 2382 26 67 77 129 130 158 28 16
189 17 2145 17 l2115 0 41 -22 c47 -25 104 -85 122 -128 57 -140 737 -2035
749 -2085 12 -53 13 -80 4 -145 -22 -159 -113 -280 -272 -359 -98 -49 -119
-55 -538 -136 -342 -67 -412 -91 -481 -166 -93 -101 -48 -192 110 -223 76 -15
4160 -17 4236 -2 112 22 174 64 174 119 0 40 -38 108 -76 137 -75 57 -135 75
-466 136 -178 32 -355 70 -394 85 -142 51 -275 159 -351 286 -30 51 -183 429
-604 1488 -105 267 -204 512 -219 545 -34 74 -1400 3472 -1400 3483 0 4 -41
106 -91 227 -49 121 -511 1266 -1025 2545 -645 1605 -942 2333 -960 2351 -95
100 -419 170 -649 142z m-36 -2170 c26 -24 103 -223 519 -1348 269 -726 515
-1392 547 -1480 31 -88 72 -197 91 -242 96 -235 784 -2106 784 -2133 0 -41
-22 -83 -57 -106 -27 -18 -77 -19 -1853 -19 -1726 0 -1827 1 -1857 18 -40 21
-63 63 -63 113 0 33 665 2023 704 2109 8 17 54 152 102 300 48 149 278 833
510 1520 353 1042 428 1254 449 1273 37 31 87 29 124 -5z"/>
<path d="M43895 20334 c-112 -22 -129 -28 -161 -56 -29 -26 -34 -37 -34 -74 0
-50 32 -94 107 -146 74 -50 143 -73 551 -177 216 -55 412 -109 436 -121 187
-90 322 -370 355 -740 18 -191 13 -1505 -9 -2407 -10 -450 -22 -863 -25 -918
-3 -55 -8 -248 -11 -430 -2 -181 -28 -1252 -56 -2380 -28 -1127 -54 -2196 -58
-2375 -7 -338 -13 -392 -60 -531 -83 -247 -274 -452 -482 -518 -20 -7 -198
-43 -395 -81 -197 -37 -380 -78 -406 -89 -114 -49 -177 -117 -177 -189 0 -35
5 -45 37 -71 77 -63 19 -61 1631 -61 1608 0 1533 -3 1586 61 56 66 28 133 -94
224 -49 36 -109 89 -135 118 -121 137 -177 353 -205 792 -9 147 -37 1170 -44
1635 -2 107 -20 832 -40 1610 -20 778 -41 1615 -46 1860 -5 245 -18 780 -29
1190 -28 1063 -29 1072 -7 1105 40 62 133 66 188 8 15 -16 345 -448 735 -960
875 -1152 958 -1261 1296 -1705 150 -196 301 -395 337 -442 36 -47 202 -266
370 -487 168 -220 399 -525 514 -677 115 -152 213 -279 216 -282 4 -3 712
-932 1575 -2065 862 -1133 1581 -2075 1599 -2094 17 -18 54 -44 81 -57 45 -21
64 -24 183 -24 153 0 194 13 237 78 41 62 46 122 40 437 -3 160 -7 781 -10
1380 -2 600 -9 1761 -15 2580 -8 1022 -9 1626 -2 1925 6 239 11 599 12 800 1
201 10 995 20 1765 20 1479 19 1442 67 1590 20 63 83 189 117 235 79 106 207
207 317 250 65 26 184 53 542 124 225 45 279 59 341 90 84 41 132 89 142 142
9 50 -5 84 -45 111 -74 50 10 48 -2071 48 -1893 0 -1957 -1 -2013 -19 -156
-51 -141 -194 28 -279 80 -40 138 -53 525 -117 201 -33 392 -69 425 -80 235
-77 429 -306 495 -583 26 -110 30 -194 35 -797 2 -283 11 -983 19 -1555 22
-1486 28 -2616 19 -3250 l-8 -550 -24 -41 c-29 -51 -84 -84 -142 -84 -99 0
-56 -46 -1037 1134 -499 600 -925 1113 -947 1141 -22 27 -130 157 -240 288
-110 131 -226 271 -257 310 -31 40 -138 169 -237 287 -100 118 -898 1077
-1773 2130 -876 1053 -1613 1936 -1639 1961 -49 49 -120 82 -213 100 -46 8
-1987 11 -2031 3z"/>
<path d="M18664 3295 c-12 -29 5 -43 63 -55 138 -27 175 -53 176 -127 1 -21
-104 -492 -233 -1047 -225 -974 -233 -1011 -221 -1055 16 -62 54 -98 120 -118
167 -48 358 51 474 248 45 78 49 116 10 125 -35 9 -51 -2 -101 -77 -111 -164
-216 -222 -238 -132 -8 29 408 1844 477 2087 22 76 38 145 35 152 -8 22 -554
20 -562 -1z"/>
<path d="M20609 3294 c-21 -26 18 -50 93 -58 132 -15 176 -41 184 -113 3 -25
-21 -147 -74 -371 -44 -183 -82 -335 -85 -338 -3 -3 -34 8 -69 25 -100 49
-177 64 -293 59 -308 -14 -623 -244 -792 -577 -100 -198 -151 -512 -113 -696
40 -195 163 -308 368 -338 169 -25 356 49 513 206 44 43 83 75 89 72 5 -3 10
-25 10 -48 0 -74 19 -119 70 -169 116 -112 292 -81 439 78 55 60 131 177 131
201 0 21 -32 44 -58 41 -20 -2 -39 -22 -80 -83 -29 -44 -66 -93 -80 -108 -74
-79 -162 -74 -162 7 0 43 427 1899 476 2068 20 70 34 134 31 142 -6 14 -43 16
-295 16 -254 0 -291 -2 -303 -16z m-111 -950 c97 -48 146 -134 145 -254 -1
-73 -62 -367 -100 -479 -71 -210 -245 -427 -409 -507 -70 -35 -86 -39 -154
-39 -67 0 -82 3 -119 28 -89 59 -125 158 -123 337 3 334 181 720 399 864 121
80 261 100 361 50z"/>
<path d="M17943 3204 c-55 -20 -132 -89 -154 -139 -30 -65 -25 -111 15 -151
80 -80 256 -21 320 107 35 71 34 119 -2 160 -24 27 -37 33 -83 35 -32 2 -71
-3 -96 -12z"/>
<path d="M21994 3208 c-98 -31 -191 -152 -180 -233 12 -94 116 -125 233 -69
140 67 196 245 93 296 -38 20 -97 22 -146 6z"/>
<path d="M40322 3189 c-69 -34 -114 -82 -139 -148 -15 -38 -15 -48 -2 -84 19
-55 55 -79 116 -79 151 0 297 162 249 276 -30 71 -124 86 -224 35z"/>
<path d="M13328 3123 c-23 -6 -30 -30 -13 -47 8 -8 55 -20 104 -26 110 -15
146 -35 162 -89 11 -37 5 -71 -75 -428 -198 -879 -315 -1368 -342 -1421 -35
-69 -81 -96 -199 -116 -87 -15 -121 -33 -112 -61 2 -6 60 -11 151 -13 120 -2
163 1 232 18 111 26 152 25 287 -6 350 -80 611 -69 876 40 403 165 629 625
465 948 -39 76 -127 158 -207 193 -45 20 -67 35 -67 46 0 11 26 31 68 55 82
45 216 177 259 254 54 94 77 183 77 285 -1 176 -77 285 -242 348 -56 21 -65
22 -732 23 -371 1 -682 0 -692 -3z m1209 -172 c62 -27 115 -83 133 -136 8 -23
11 -69 8 -119 -11 -194 -136 -403 -290 -487 l-63 -34 -274 -3 c-247 -3 -275
-2 -292 14 -10 9 -19 25 -19 34 0 33 162 695 173 709 7 8 26 23 42 33 28 17
50 18 280 16 238 -3 252 -4 302 -27z m-127 -942 c136 -61 208 -222 181 -403
-33 -224 -152 -402 -329 -494 -115 -60 -185 -76 -332 -76 -209 0 -358 46 -403
125 l-21 36 88 394 c77 347 90 397 112 417 25 22 27 22 342 22 297 0 320 -2
362 -21z"/>
<path d="M31888 3119 c-23 -13 -23 -36 0 -48 9 -5 56 -15 102 -21 105 -15 132
-29 155 -76 22 -46 24 -28 -81 -493 -189 -837 -315 -1355 -340 -1398 -29 -51
-68 -79 -133 -99 -46 -13 -68 -35 -55 -55 7 -12 744 -12 762 0 8 5 12 17 10
27 -3 19 -11 21 -152 56 -47 11 -82 47 -90 93 -5 24 15 132 69 372 65 292 78
341 99 359 22 20 38 22 257 27 263 6 357 19 519 73 212 71 372 188 475 348
129 202 152 466 53 619 -73 114 -230 192 -438 217 -113 13 -1189 13 -1212 -1z
m1092 -153 c102 -18 169 -49 218 -99 59 -60 75 -105 74 -207 -2 -251 -138
-481 -342 -578 -123 -58 -203 -73 -422 -79 -164 -5 -190 -4 -213 11 -15 10
-25 26 -25 39 1 12 45 213 99 446 95 410 100 426 130 453 l31 28 188 0 c111
-1 218 -6 262 -14z"/>
<path d="M46908 3119 c-10 -5 -18 -16 -18 -24 0 -21 27 -32 115 -45 44 -6 92
-16 107 -22 39 -14 62 -55 61 -108 0 -41 -85 -417 -318 -1410 -93 -398 -107
-436 -179 -476 -21 -12 -72 -27 -114 -34 -92 -15 -135 -34 -130 -58 3 -16 38
-17 428 -20 234 -1 435 0 448 3 22 5 31 38 14 49 -5 3 -49 14 -98 25 -68 15
-94 26 -111 45 -43 50 -40 74 42 438 42 188 82 352 88 365 9 20 200 168 230
178 16 6 519 -892 520 -927 1 -45 -27 -64 -133 -93 -111 -30 -136 -44 -127
-69 6 -14 49 -16 476 -16 258 0 476 3 485 6 21 8 20 41 -1 52 -10 5 -42 12
-71 15 -63 7 -148 44 -204 88 -27 22 -148 194 -394 563 -334 501 -353 531
-336 547 60 58 962 752 1026 790 43 26 116 60 163 74 83 27 110 48 82 66 -19
12 -651 11 -683 -1 -36 -13 -32 -33 12 -61 49 -32 56 -81 17 -128 -20 -23
-862 -737 -968 -820 -45 -36 -40 3 53 396 96 408 111 451 172 494 17 13 74 35
126 49 98 26 133 50 102 70 -21 13 -860 13 -882 -1z"/>
<path d="M53112 2983 c-11 -10 -86 -121 -168 -247 -98 -152 -158 -235 -178
-247 -26 -16 -52 -19 -151 -20 -66 0 -129 -4 -140 -8 -13 -5 -24 -27 -36 -76
-10 -37 -15 -74 -12 -81 4 -11 38 -14 159 -14 87 0 154 -4 154 -9 0 -5 -57
-254 -126 -553 -73 -318 -126 -566 -126 -598 -2 -106 39 -182 119 -221 39 -19
64 -24 134 -24 81 0 90 2 171 42 65 33 108 64 181 133 144 137 196 217 151
234 -33 13 -53 5 -90 -36 -61 -70 -165 -156 -225 -188 -69 -37 -111 -39 -144
-6 -49 49 -46 66 93 666 l129 555 220 -3 c174 -3 221 -1 230 10 6 7 18 46 28
87 15 62 16 75 4 82 -8 5 -110 9 -227 9 -198 0 -213 1 -208 18 2 9 28 121 57
249 58 257 58 295 1 246z"/>
<path d="M41600 2578 c-52 -26 -84 -70 -105 -141 -20 -68 -19 -136 4 -231 l19
-80 -43 -87 c-127 -252 -390 -614 -600 -825 -157 -158 -217 -183 -311 -128
l-45 27 -25 -23 c-13 -13 -24 -33 -24 -44 0 -28 101 -123 157 -148 92 -41 196
1 338 137 l88 85 71 -54 c143 -108 313 -170 505 -182 187 -12 322 26 412 115
78 79 104 155 96 290 -6 126 -34 203 -192 531 -67 140 -133 285 -146 321 l-23
66 23 79 c49 165 37 270 -33 299 -51 22 -115 19 -166 -7z m50 -743 c24 -60 74
-178 111 -261 79 -176 99 -245 99 -343 0 -86 -15 -126 -63 -168 -51 -45 -96
-57 -191 -50 -151 11 -344 92 -452 189 l-22 19 91 120 c112 150 250 370 319
510 29 58 56 104 59 100 3 -3 25 -55 49 -116z"/>
<path d="M44892 2584 c-109 -56 -147 -208 -101 -407 13 -55 12 -59 -15 -115
-116 -237 -409 -644 -612 -848 -154 -155 -221 -183 -309 -129 -49 30 -50 30
-75 5 -35 -35 -25 -63 39 -123 140 -129 250 -111 437 74 l81 81 65 -49 c139
-106 278 -162 452 -184 375 -46 595 112 573 411 -8 107 -42 200 -182 490 -104
217 -159 343 -177 410 -3 8 6 48 19 90 45 144 41 230 -13 281 -33 31 -133 38
-182 13z m58 -778 c28 -71 76 -184 107 -250 115 -252 123 -415 25 -498 -48
-40 -95 -52 -186 -45 -152 11 -320 81 -459 191 -17 13 -13 22 69 132 117 157
240 351 316 500 35 68 66 117 70 111 3 -7 29 -70 58 -141z"/>
<path d="M16708 2497 c-9 -7 -35 -100 -61 -219 -56 -248 -86 -333 -186 -532
-223 -440 -474 -725 -643 -730 -43 -1 -53 3 -74 27 -36 41 -47 99 -40 202 6
103 32 210 147 625 108 392 114 478 37 565 -44 51 -102 69 -201 62 -95 -6
-169 -31 -253 -86 -81 -52 -163 -128 -170 -157 -7 -26 18 -64 42 -64 7 0 48
29 93 64 93 74 154 101 204 92 88 -17 91 -79 17 -351 -182 -665 -194 -720
-172 -845 28 -165 118 -252 276 -267 191 -18 418 143 611 433 31 47 63 88 71
91 36 14 36 -15 0 -172 -20 -86 -36 -169 -36 -185 0 -142 170 -209 353 -140
38 14 79 41 119 78 62 57 153 185 164 229 8 31 -12 53 -47 53 -24 0 -35 -10
-70 -62 -91 -136 -148 -188 -202 -188 -28 0 -47 24 -47 61 0 12 68 313 150
670 83 357 150 653 150 659 0 11 -61 41 -161 78 -45 16 -60 18 -71 9z"/>
<path d="M22690 2482 c-91 -30 -177 -82 -251 -150 -54 -50 -69 -70 -69 -93 0
-27 22 -49 49 -49 5 0 36 23 68 51 61 54 162 109 201 109 30 0 78 -25 86 -45
15 -40 -2 -131 -135 -710 -78 -339 -139 -621 -136 -629 6 -15 193 -88 216 -84
12 2 31 61 77 248 42 165 77 281 108 355 166 392 433 762 615 853 131 65 198
29 216 -118 11 -90 -20 -246 -116 -596 -134 -491 -141 -521 -137 -587 8 -107
69 -152 208 -152 74 0 93 4 150 31 87 42 148 98 214 197 65 99 72 119 50 141
-33 33 -64 16 -121 -64 -29 -41 -76 -97 -104 -123 -42 -39 -57 -48 -83 -45
-22 2 -34 11 -43 29 -15 31 -7 66 107 484 126 461 133 495 133 615 0 83 -4
116 -21 160 -29 73 -73 125 -136 158 -46 24 -61 27 -152 27 -98 0 -102 -1
-185 -42 -141 -71 -295 -222 -409 -401 -25 -39 -51 -74 -59 -77 -31 -12 -36
13 -17 98 37 174 41 204 28 263 -23 111 -85 157 -217 161 -57 2 -96 -2 -135
-15z"/>
<path d="M25232 2480 c-298 -78 -570 -350 -690 -690 -51 -144 -66 -239 -67
-405 0 -131 3 -159 23 -221 56 -169 186 -265 382 -281 177 -14 375 86 522 263
87 106 109 101 77 -17 -107 -395 -266 -729 -408 -862 -62 -58 -104 -77 -171
-77 -81 0 -134 35 -203 135 -24 34 -65 31 -87 -7 -14 -26 -13 -31 18 -94 43
-86 128 -175 195 -204 73 -32 168 -25 259 19 134 64 288 239 406 461 142 269
297 748 363 1125 30 170 33 426 6 525 -64 237 -215 351 -463 349 -54 0 -118
-8 -162 -19z m237 -129 c138 -71 191 -269 142 -531 -46 -245 -97 -368 -210
-510 -220 -276 -502 -331 -605 -117 -70 144 -45 439 57 691 95 233 255 415
414 472 58 20 157 18 202 -5z"/>
<path d="M27775 2480 c-167 -44 -294 -120 -421 -252 -123 -129 -203 -263 -259
-433 -82 -253 -68 -525 35 -688 146 -231 472 -293 775 -147 279 134 500 442
566 790 18 96 15 272 -5 350 -53 205 -183 341 -367 385 -88 20 -237 18 -324
-5z m276 -167 c60 -32 100 -82 126 -156 28 -80 25 -307 -6 -452 -45 -214 -104
-361 -195 -489 -128 -179 -342 -252 -499 -168 -146 78 -190 298 -126 630 85
440 295 683 576 668 55 -3 85 -11 124 -33z"/>
<path d="M29093 2485 c-70 -19 -135 -53 -210 -109 -73 -55 -123 -110 -123
-135 0 -19 29 -51 47 -51 6 0 42 25 80 56 88 73 162 108 211 100 45 -7 71 -33
78 -77 3 -23 -42 -238 -140 -663 -79 -346 -142 -634 -140 -640 5 -13 190 -87
216 -86 19 0 20 3 73 230 48 205 60 246 107 358 196 471 513 876 704 898 44 6
54 3 81 -20 79 -67 72 -223 -28 -591 -187 -690 -185 -684 -175 -738 23 -121
183 -170 349 -107 40 15 79 41 122 82 66 61 165 203 165 235 0 27 -20 43 -52
43 -22 0 -35 -11 -69 -62 -91 -136 -148 -188 -202 -188 -36 0 -51 31 -43 88 3
25 52 212 107 416 119 435 139 525 139 627 0 217 -117 349 -310 349 -133 0
-257 -66 -405 -214 -61 -61 -130 -144 -173 -208 -69 -102 -96 -126 -108 -95
-3 8 7 62 21 121 51 218 22 331 -97 381 -46 19 -154 19 -225 0z"/>
<path d="M33970 2482 c-90 -30 -173 -79 -249 -148 -57 -52 -71 -71 -71 -94 0
-27 22 -50 49 -50 5 0 36 23 68 50 82 71 172 114 220 107 51 -8 73 -38 73 -96
0 -25 -63 -322 -141 -660 -77 -337 -138 -619 -136 -626 5 -12 188 -85 213 -85
21 0 28 23 89 285 69 294 108 416 192 587 137 283 315 488 421 488 47 0 93
-31 121 -80 24 -43 48 -51 73 -22 8 9 48 77 88 151 63 114 72 137 64 159 -13
36 -48 52 -115 52 -175 0 -379 -135 -536 -356 -61 -86 -84 -107 -97 -86 -2 4
5 46 16 92 36 154 13 255 -70 314 -38 27 -51 30 -130 33 -64 2 -101 -2 -142
-15z"/>
<path d="M35825 2481 c-334 -84 -601 -373 -702 -758 -33 -129 -42 -315 -19
-423 58 -276 272 -434 562 -416 93 5 222 39 299 79 221 112 410 339 508 612
84 235 79 501 -14 675 -62 116 -190 210 -327 239 -77 16 -226 12 -307 -8z
m276 -168 c108 -58 156 -185 146 -388 -13 -270 -103 -551 -230 -720 -77 -103
-172 -164 -285 -185 -167 -30 -289 46 -340 210 -22 74 -22 290 2 417 73 397
240 644 469 693 77 16 181 5 238 -27z"/>
<path d="M37143 2485 c-70 -19 -135 -53 -210 -109 -111 -84 -143 -135 -107
-170 24 -25 38 -20 111 40 123 102 214 127 267 74 17 -16 21 -32 19 -73 -1
-29 -65 -326 -142 -660 -77 -334 -138 -613 -135 -620 5 -13 189 -88 216 -87
20 0 15 -17 77 245 59 250 88 334 185 531 168 343 371 613 518 687 119 60 178
19 178 -125 0 -102 -13 -167 -145 -737 -64 -276 -114 -508 -112 -515 5 -13
187 -86 213 -86 21 0 28 22 83 257 56 238 84 318 181 518 231 475 528 790 657
700 33 -23 46 -87 39 -180 -9 -109 -34 -219 -132 -580 -149 -544 -151 -558
-116 -625 11 -20 38 -46 63 -60 62 -35 187 -35 274 -1 74 29 191 143 248 239
51 87 47 122 -15 122 -22 0 -35 -11 -69 -62 -64 -95 -98 -135 -138 -163 -49
-33 -88 -33 -103 1 -15 33 -10 57 103 479 49 187 99 378 110 425 61 261 16
447 -126 523 -32 18 -57 22 -131 22 -84 0 -95 -2 -170 -39 -108 -53 -258 -203
-368 -369 -43 -65 -83 -116 -89 -114 -8 2 -12 53 -12 158 0 139 -2 159 -23
204 -28 60 -73 109 -127 138 -33 18 -57 22 -131 22 -85 0 -95 -2 -170 -39
-108 -54 -250 -195 -358 -359 -43 -64 -83 -120 -88 -123 -5 -4 -14 -2 -20 4
-7 7 -2 47 16 129 31 139 33 222 7 278 -22 50 -69 91 -119 105 -51 14 -147 11
-209 -5z"/>
<path d="M43270 2484 c-289 -77 -566 -362 -679 -700 -103 -307 -73 -591 80
-758 216 -236 731 -173 961 117 l39 50 -27 28 c-15 16 -32 29 -37 29 -5 0 -37
-28 -71 -63 -99 -101 -219 -153 -394 -172 -134 -14 -232 33 -285 135 -25 51
-55 175 -44 186 2 3 56 18 118 34 306 77 549 206 724 384 133 134 185 247 185
401 0 179 -89 287 -272 330 -79 19 -226 18 -298 -1z m220 -134 c148 -76 143
-307 -11 -514 -96 -129 -327 -272 -534 -331 -120 -34 -125 -33 -125 11 0 57
38 227 76 342 84 251 201 413 347 482 79 38 184 42 247 10z"/>
<path d="M49620 2477 c-150 -47 -263 -120 -394 -257 -295 -309 -407 -782 -258
-1088 35 -73 122 -161 192 -195 172 -84 431 -70 630 34 85 44 210 151 236 202
15 29 15 30 -13 53 -15 13 -31 23 -35 24 -4 0 -36 -28 -70 -63 -101 -101 -209
-150 -370 -168 -162 -18 -256 22 -310 131 -23 48 -54 177 -44 187 2 2 48 14
102 28 215 52 436 149 588 257 118 83 242 216 285 302 78 159 72 349 -16 452
-67 78 -166 115 -328 120 -105 4 -130 1 -195 -19z m239 -127 c84 -42 116 -112
108 -229 -11 -170 -116 -327 -301 -453 -115 -79 -381 -188 -457 -188 -23 0
-24 16 -4 133 68 386 249 685 455 748 52 15 159 10 199 -11z"/>
<path d="M51454 2475 c-104 -35 -187 -88 -281 -178 -94 -91 -118 -96 -109 -25
13 108 15 164 6 178 -8 12 -48 16 -239 18 -249 3 -294 -2 -299 -35 -4 -24 22
-35 132 -53 38 -6 78 -16 88 -21 23 -13 48 -61 48 -95 0 -15 -108 -498 -240
-1073 -133 -575 -239 -1052 -238 -1061 2 -8 8 -15 13 -15 67 2 224 18 233 24
7 4 52 182 102 397 49 214 92 399 95 411 7 30 18 29 97 -11 164 -83 367 -71
583 34 288 140 502 420 583 762 23 97 26 134 26 268 0 135 -3 163 -22 214 -58
155 -139 231 -289 270 -91 24 -204 20 -289 -9z m171 -174 c52 -24 78 -53 112
-126 27 -57 28 -67 28 -210 0 -111 -5 -171 -19 -230 -78 -335 -248 -591 -456
-689 -57 -27 -75 -31 -155 -31 -74 0 -97 4 -131 22 -88 47 -144 147 -144 257
0 69 92 460 126 538 61 137 151 266 246 353 57 51 152 109 207 125 49 15 144
10 186 -9z"/>
<path d="M17451 2457 c-55 -28 -33 -48 79 -72 105 -22 140 -53 140 -125 0 -16
-58 -281 -129 -587 -158 -680 -144 -613 -131 -662 25 -93 111 -139 238 -128
131 13 242 89 337 231 56 84 67 124 41 146 -30 24 -59 6 -112 -69 -63 -89
-127 -156 -165 -171 -35 -15 -66 0 -75 36 -7 28 207 970 277 1219 46 165 47
180 17 189 -46 12 -492 6 -517 -7z"/>
<path d="M21503 2463 c-12 -2 -27 -10 -33 -18 -17 -21 12 -42 78 -55 131 -26
162 -50 162 -127 0 -25 -58 -297 -130 -605 -71 -307 -130 -580 -130 -606 0
-98 61 -156 176 -168 121 -13 239 38 337 146 52 58 127 174 127 197 0 18 -29
43 -51 43 -23 0 -42 -19 -117 -123 -51 -72 -127 -137 -158 -137 -25 0 -44 32
-44 73 0 47 231 1047 284 1231 19 65 32 124 29 131 -2 7 -14 16 -26 19 -25 6
-470 6 -504 -1z"/>
<path d="M39860 2461 c-15 -4 -26 -15 -28 -28 -3 -23 18 -33 122 -53 83 -17
116 -50 116 -118 0 -28 -56 -291 -130 -608 -71 -307 -130 -579 -130 -604 0
-62 28 -110 81 -140 61 -34 187 -35 272 -1 93 37 207 155 272 280 21 42 8 81
-28 81 -30 0 -47 -14 -87 -75 -58 -86 -102 -135 -145 -161 -23 -13 -47 -24
-53 -24 -22 0 -42 33 -42 70 0 47 223 1013 281 1219 39 138 40 145 23 158 -14
10 -74 13 -258 12 -133 -1 -252 -4 -266 -8z"/>
</g>
</svg>
