<svg xmlns="http://www.w3.org/2000/svg" fill="none" viewBox="0 0 23 13">
<g clip-path="url(#clip0_2331_865)">
<mask id="mask0_2331_865" style="mask-type:alpha" maskUnits="userSpaceOnUse" x="0" y="0" width="23" height="13">
<rect width="23" height="13" fill="black"/>
</mask>
<g mask="url(#mask0_2331_865)">
<path d="M3.3735 6.32476C4.12041 6.32476 5.3688 5.82935 5.88105 5.1125C6.5212 4.21651 6.78802 2.95158 6.14775 1.73932C5.39623 0.316261 4.22716 0 3.3735 0H0.172363V9.32901H3.3735V6.32476Z" fill="#24515B"/>
<path d="M22.3659 5.1125C23.0062 4.21651 23.2729 2.95158 22.6326 1.73932C21.8811 0.316261 20.712 0 19.8584 0H16.6572V9.32901H19.8584V9.32889H22.9533L21.0458 6.05346C21.5715 5.83881 22.0819 5.50993 22.3659 5.1125Z" fill="#24515B"/>
<path d="M4.86719 9.32896H15.8043L10.4158 0.0527344L4.86719 9.32896Z" fill="#24515B"/>
<path d="M1.14708 11.5493L0.85567 11.4865C0.620296 11.4348 0.44474 11.3389 0.44474 11.1211C0.44474 10.8406 0.784738 10.763 0.978973 10.763C1.23303 10.763 1.52077 10.8553 1.60293 11.1618L1.94671 11.1138C1.84954 10.667 1.44606 10.4604 0.993986 10.4604C0.586603 10.4604 0.0822805 10.6597 0.0822805 11.1322C0.0822805 11.5493 0.429727 11.7302 0.773508 11.804L1.08738 11.8704C1.40113 11.9369 1.62906 12.0365 1.62906 12.2986C1.62906 12.5422 1.41236 12.6972 1.04246 12.6972C0.642639 12.6972 0.411048 12.5053 0.343781 12.1657L0 12.2137C0.0672667 12.6787 0.440957 12.9999 1.03501 12.9999C1.53567 12.9999 1.99152 12.7525 1.99152 12.2654C1.99152 11.7671 1.53188 11.6342 1.14708 11.5493Z" fill="#24515B"/>
<path d="M4.34166 11.7192L3.65421 10.5049H3.26562L4.15487 12.022V12.9558H4.50976V12.0293L5.4327 10.5049H5.04411L4.34166 11.7192Z" fill="#24515B"/>
<path d="M7.81468 11.5493L7.52327 11.4865C7.28766 11.4348 7.1121 11.3389 7.1121 11.1211C7.1121 10.8406 7.4521 10.763 7.64645 10.763C7.90051 10.763 8.18825 10.8553 8.27041 11.1618L8.61431 11.1138C8.51702 10.667 8.11354 10.4604 7.66135 10.4604C7.25408 10.4604 6.74964 10.6597 6.74964 11.1322C6.74964 11.5493 7.09721 11.7302 7.44087 11.804L7.75474 11.8704C8.06861 11.9369 8.29654 12.0365 8.29654 12.2986C8.29654 12.5422 8.07984 12.6972 7.70994 12.6972C7.31012 12.6972 7.07841 12.5053 7.01126 12.1657L6.66748 12.2137C6.73475 12.6787 7.10832 12.9999 7.70249 12.9999C8.20315 12.9999 8.659 12.7525 8.659 12.2654C8.659 11.7671 8.19936 11.6342 7.81468 11.5493Z" fill="#24515B"/>
<path d="M9.93311 10.815H10.7514V12.9558H11.1063V10.815H11.9246V10.5049H9.93311V10.815Z" fill="#24515B"/>
<path d="M13.4199 12.9558H15.1275V12.6457H13.7749V11.8484H15.049V11.5385H13.7749V10.815H15.1275V10.5049H13.4199V12.9558Z" fill="#24515B"/>
<path d="M17.9833 12.5424L17.3406 10.5049H16.7466V12.9558H17.1015V10.8259L17.7965 12.9558H18.1701L18.8651 10.8259V12.9558H19.22V10.5049H18.6259L17.9833 12.5424Z" fill="#24515B"/>
<path d="M21.9747 11.5493L21.6833 11.4865C21.4479 11.4348 21.2724 11.3389 21.2724 11.1211C21.2724 10.8406 21.6124 10.763 21.8066 10.763C22.0607 10.763 22.3484 10.8553 22.4306 11.1618L22.7744 11.1138C22.6772 10.667 22.2737 10.4604 21.8215 10.4604C21.4142 10.4604 20.9099 10.6597 20.9099 11.1322C20.9099 11.5493 21.2574 11.7302 21.6011 11.804L21.915 11.8704C22.2288 11.9369 22.4567 12.0365 22.4567 12.2986C22.4567 12.5422 22.24 12.6972 21.8701 12.6972C21.4703 12.6972 21.2387 12.5053 21.1714 12.1657L20.8276 12.2137C20.8949 12.6787 21.2686 12.9999 21.8626 12.9999C22.3633 12.9999 22.8192 12.7525 22.8192 12.2654C22.8192 11.7671 22.3595 11.6342 21.9747 11.5493Z" fill="#24515B"/>
</g>
</g>
<defs>
<clipPath id="clip0_2331_865">
<rect width="23" height="13" fill="white"/>
</clipPath>
</defs>
</svg>