<?xml version="1.0" standalone="no"?>
<!DOCTYPE svg PUBLIC "-//W3C//DTD SVG 20010904//EN"
 "http://www.w3.org/TR/2001/REC-SVG-20010904/DTD/svg10.dtd">
<svg version="1.0" xmlns="http://www.w3.org/2000/svg"
 width="1200.000000pt" height="1161.000000pt" viewBox="0 0 1200.000000 1161.000000"
 preserveAspectRatio="xMidYMid meet">

<g transform="translate(0.000000,1161.000000) scale(0.100000,-0.100000)"
fill="#000000" stroke="none">
<path d="M5460 9603 c-350 -60 -643 -157 -955 -317 -760 -389 -1460 -1103
-2030 -2072 -58 -98 -105 -182 -105 -186 0 -4 528 -8 1173 -8 l1173 0 64 113
c212 373 515 737 793 955 235 184 441 290 739 379 l28 8 -226 325 c-124 179
-300 434 -392 567 -166 240 -167 242 -202 241 -19 0 -46 -3 -60 -5z"/>
<path d="M6865 9467 c-2 -6 -23 -120 -45 -252 -48 -280 -108 -628 -116 -667
l-6 -28 107 0 c541 0 1160 -301 1711 -833 160 -154 346 -360 487 -539 l100
-128 269 0 c265 0 269 0 258 20 -32 60 -262 391 -385 555 -229 305 -392 494
-659 760 -411 411 -759 674 -1189 900 -217 114 -524 236 -532 212z"/>
<path d="M2304 6251 c-2 -2 -4 -445 -4 -983 l0 -978 120 0 120 0 0 389 0 390
343 3 c341 4 342 4 424 31 192 64 327 209 377 403 20 78 20 229 1 312 -37 154
-143 293 -281 365 -124 64 -151 67 -650 70 -245 1 -448 0 -450 -2z m938 -254
c77 -38 134 -96 171 -175 28 -60 31 -77 31 -157 0 -162 -68 -270 -209 -337
l-70 -33 -310 0 -310 0 -3 368 -2 368 322 -3 323 -3 57 -28z"/>
<path d="M6030 5205 l0 -965 188 2 187 3 3 304 2 304 71 84 c39 47 75 81 79
76 7 -7 481 -602 574 -720 l41 -52 234 -1 c222 0 233 1 219 18 -18 20 -280
337 -548 662 -106 129 -213 258 -236 285 l-43 51 301 349 c414 483 399 465
441 511 20 23 37 44 37 48 0 3 -103 6 -229 6 l-229 0 -39 -44 c-21 -24 -180
-217 -353 -429 l-315 -384 -5 426 -5 426 -187 3 -188 2 0 -965z"/>
<path d="M4974 5545 c-361 -79 -554 -506 -403 -895 124 -320 508 -462 824
-306 272 135 397 479 295 809 -41 132 -158 276 -277 340 -115 61 -297 83 -439
52z m285 -179 c101 -37 189 -132 233 -251 26 -73 36 -235 18 -318 -29 -142
-131 -272 -248 -318 -72 -28 -194 -31 -267 -6 -107 36 -203 139 -245 260 -27
76 -36 219 -21 302 31 166 146 301 290 342 57 16 180 10 240 -11z"/>
<path d="M4370 5533 c-99 -17 -190 -65 -276 -146 l-64 -59 0 91 0 91 -95 0
-95 0 0 -610 0 -610 95 0 95 0 0 435 0 435 38 42 c76 85 191 140 296 143 l69
1 1 95 c1 103 0 103 -64 92z"/>
<path d="M7775 5338 c-3 -7 -4 -256 -3 -553 l3 -540 433 -3 432 -2 0 135 0
135 -270 0 -270 0 0 80 0 80 265 0 265 0 0 130 0 130 -265 0 -265 0 0 75 0 75
270 0 270 0 0 135 0 135 -430 0 c-335 0 -432 -3 -435 -12z"/>
<path d="M8772 5343 c4 -10 194 -293 335 -500 l103 -152 0 -225 0 -226 160 0
160 0 0 223 0 222 215 322 c118 178 215 327 215 333 0 7 -60 10 -176 8 l-176
-3 -114 -185 c-62 -102 -118 -186 -123 -188 -5 -2 -15 7 -22 20 -7 13 -59 98
-116 191 l-104 167 -181 0 c-99 0 -178 -3 -176 -7z"/>
<path d="M4385 2856 c-253 -65 -385 -319 -309 -592 52 -187 247 -316 454 -301
105 7 175 36 248 103 34 31 62 59 62 63 0 3 -20 17 -44 30 l-44 25 -52 -47
c-155 -140 -405 -82 -496 115 -26 57 -29 73 -29 168 0 99 2 109 32 166 103
198 351 245 506 96 l37 -36 44 24 c36 19 43 27 36 41 -20 36 -114 109 -168
130 -70 27 -204 34 -277 15z"/>
<path d="M9270 2854 c-166 -45 -242 -193 -170 -333 33 -66 79 -89 330 -165 50
-15 99 -37 119 -54 30 -24 35 -35 39 -84 4 -52 2 -58 -32 -95 -45 -50 -100
-68 -195 -61 -78 6 -158 38 -213 87 -20 17 -38 31 -40 31 -3 0 -18 -18 -33
-40 l-28 -41 29 -30 c38 -40 135 -86 209 -100 79 -15 208 -5 265 19 123 52
184 174 150 296 -27 97 -97 146 -287 200 -66 19 -134 41 -151 50 -69 36 -90
101 -52 164 57 93 248 96 367 5 l47 -36 32 39 33 39 -22 23 c-12 12 -48 36
-82 52 -102 50 -211 62 -315 34z"/>
<path d="M2310 2415 l0 -446 53 3 52 3 3 203 2 202 225 0 225 0 0 45 0 45
-225 0 -225 0 0 145 0 145 234 0 233 0 -2 48 -1 47 -287 3 -287 2 0 -445z"/>
<path d="M3381 2838 c-5 -13 -83 -209 -175 -437 -91 -227 -166 -417 -166 -422
0 -5 26 -9 58 -9 l58 0 40 98 39 97 224 0 223 0 38 -95 38 -95 61 -3 c33 -2
61 0 61 3 0 6 -264 661 -322 800 l-34 80 -67 3 c-62 3 -68 1 -76 -20z m173
-327 c47 -123 86 -227 86 -232 0 -5 -84 -9 -186 -9 -102 0 -184 4 -182 8 2 5
44 113 93 240 50 127 93 228 96 224 4 -4 45 -108 93 -231z"/>
<path d="M5120 2415 l0 -445 55 0 55 0 0 445 0 445 -55 0 -55 0 0 -445z"/>
<path d="M5580 2415 l0 -445 260 0 260 0 0 50 0 50 -205 0 -205 0 0 395 0 395
-55 0 -55 0 0 -445z"/>
<path d="M6400 2415 l0 -446 53 3 52 3 0 440 0 440 -52 3 -53 3 0 -446z"/>
<path d="M6797 2853 c-4 -3 -7 -26 -7 -50 l0 -43 140 0 140 0 0 -395 0 -395
55 0 55 0 0 395 0 395 140 0 140 0 0 50 0 50 -328 0 c-181 0 -332 -3 -335 -7z"/>
<path d="M7750 2415 l0 -446 53 3 52 3 0 440 0 440 -52 3 -53 3 0 -446z"/>
<path d="M8210 2415 l0 -445 285 0 285 0 0 50 0 50 -230 0 -230 0 0 155 0 155
228 0 227 0 0 45 0 45 -227 0 -228 0 0 145 0 145 230 0 230 0 0 50 0 50 -285
0 -285 0 0 -445z"/>
</g>
</svg>
